  0
SECTION
  2
HEADER
  9
$ANGBASE
  50
0.0
  9
$ANGDIR
  70
  1
  9
$MEASUREMENT
  70
0
  0
ENDSEC
  0
SECTION
  2
TABLES
  0
TABLE
  2
LTYPE
  70
1
  0
LTYPE
  2
CONTINUOUS
  70
0
  3
Solid line
  72
65
  73
0
  40
0.0
  0
ENDTAB
  0
TABLE
  2
STYLE
  70
4
  0
STYLE
  2
KICAD
  70
0
  40
0
  41
1
  42
1
  50
0
  71
0
  3
isocp.shx
  0
STYLE
  2
KICADB
  70
0
  40
0
  41
1
  42
1
  50
0
  71
0
  3
isocp.shx
  0
STYLE
  2
KICADI
  70
0
  40
0
  41
1
  42
1
  50
15
  71
0
  3
isocp.shx
  0
STYLE
  2
KICADBI
  70
0
  40
0
  41
1
  42
1
  50
15
  71
0
  3
isocp.shx
  0
ENDTAB
  0
TABLE
  2
LAYER
  70
30
  0
LAYER
  2
BLACK
  70
0
  62
7
  6
CONTINUOUS
  0
LAYER
  2
GRAY1
  70
0
  62
251
  6
CONTINUOUS
  0
LAYER
  2
GRAY2
  70
0
  62
8
  6
CONTINUOUS
  0
LAYER
  2
GRAY3
  70
0
  62
9
  6
CONTINUOUS
  0
LAYER
  2
WHITE
  70
0
  62
7
  6
CONTINUOUS
  0
LAYER
  2
LYELLOW
  70
0
  62
51
  6
CONTINUOUS
  0
LAYER
  2
BLUE1
  70
0
  62
178
  6
CONTINUOUS
  0
LAYER
  2
GREEN1
  70
0
  62
98
  6
CONTINUOUS
  0
LAYER
  2
CYAN1
  70
0
  62
138
  6
CONTINUOUS
  0
LAYER
  2
RED1
  70
0
  62
18
  6
CONTINUOUS
  0
LAYER
  2
MAGENTA1
  70
0
  62
228
  6
CONTINUOUS
  0
LAYER
  2
BROWN1
  70
0
  62
58
  6
CONTINUOUS
  0
LAYER
  2
BLUE2
  70
0
  62
5
  6
CONTINUOUS
  0
LAYER
  2
GREEN2
  70
0
  62
3
  6
CONTINUOUS
  0
LAYER
  2
CYAN2
  70
0
  62
4
  6
CONTINUOUS
  0
LAYER
  2
RED2
  70
0
  62
1
  6
CONTINUOUS
  0
LAYER
  2
MAGENTA2
  70
0
  62
6
  6
CONTINUOUS
  0
LAYER
  2
BROWN2
  70
0
  62
54
  6
CONTINUOUS
  0
LAYER
  2
BLUE3
  70
0
  62
171
  6
CONTINUOUS
  0
LAYER
  2
GREEN3
  70
0
  62
91
  6
CONTINUOUS
  0
LAYER
  2
CYAN3
  70
0
  62
131
  6
CONTINUOUS
  0
LAYER
  2
RED3
  70
0
  62
11
  6
CONTINUOUS
  0
LAYER
  2
MAGENTA3
  70
0
  62
221
  6
CONTINUOUS
  0
LAYER
  2
YELLOW3
  70
0
  62
2
  6
CONTINUOUS
  0
LAYER
  2
BLUE4
  70
0
  62
5
  6
CONTINUOUS
  0
LAYER
  2
GREEN4
  70
0
  62
3
  6
CONTINUOUS
  0
LAYER
  2
CYAN4
  70
0
  62
4
  6
CONTINUOUS
  0
LAYER
  2
RED4
  70
0
  62
1
  6
CONTINUOUS
  0
LAYER
  2
MAGENTA4
  70
0
  62
6
  6
CONTINUOUS
  0
LAYER
  2
YELLOW4
  70
0
  62
2
  6
CONTINUOUS
  0
ENDTAB
  0
ENDSEC
  0
SECTION
  2
ENTITIES
0
LINE
8
Black
10
114.433
20
-28.3741
11
114.44
21
-28.3741
0
LINE
8
Black
10
114.44
20
-28.3741
11
114.446
21
-28.3764
0
LINE
8
Black
10
114.446
20
-28.3764
11
114.453
21
-28.3775
0
LINE
8
Black
10
114.453
20
-28.3775
11
114.458
21
-28.3808
0
LINE
8
Black
10
114.458
20
-28.3808
11
114.465
21
-28.383
0
LINE
8
Black
10
114.465
20
-28.383
11
114.47
21
-28.3873
0
LINE
8
Black
10
114.47
20
-28.3873
11
114.475
21
-28.3905
0
LINE
8
Black
10
114.475
20
-28.3905
11
114.479
21
-28.3956
0
LINE
8
Black
10
114.479
20
-28.3956
11
114.484
21
-28.3998
0
LINE
8
Black
10
114.484
20
-28.3998
11
114.488
21
-28.4055
0
LINE
8
Black
10
114.488
20
-28.4055
11
114.492
21
-28.4105
0
LINE
8
Black
10
114.492
20
-28.4105
11
114.494
21
-28.4167
0
LINE
8
Black
10
114.494
20
-28.4167
11
114.497
21
-28.4223
0
LINE
8
Black
10
114.497
20
-28.4223
11
114.499
21
-28.4288
0
LINE
8
Black
10
114.499
20
-28.4288
11
114.501
21
-28.435
0
LINE
8
Black
10
114.501
20
-28.435
11
114.501
21
-28.4415
0
LINE
8
Black
10
114.501
20
-28.4415
11
114.502
21
-28.448
0
LINE
8
Black
10
114.502
20
-28.448
11
114.502
21
-93.726
0
LINE
8
Black
10
114.502
20
-93.726
11
114.501
21
-93.7325
0
LINE
8
Black
10
114.501
20
-93.7325
11
114.501
21
-93.739
0
LINE
8
Black
10
114.501
20
-93.739
11
114.499
21
-93.7452
0
LINE
8
Black
10
114.499
20
-93.7452
11
114.497
21
-93.7517
0
LINE
8
Black
10
114.497
20
-93.7517
11
114.494
21
-93.7573
0
LINE
8
Black
10
114.494
20
-93.7573
11
114.492
21
-93.7635
0
LINE
8
Black
10
114.492
20
-93.7635
11
114.488
21
-93.7685
0
LINE
8
Black
10
114.488
20
-93.7685
11
114.484
21
-93.7742
0
LINE
8
Black
10
114.484
20
-93.7742
11
114.479
21
-93.7784
0
LINE
8
Black
10
114.479
20
-93.7784
11
114.475
21
-93.7835
0
LINE
8
Black
10
114.475
20
-93.7835
11
114.47
21
-93.7867
0
LINE
8
Black
10
114.47
20
-93.7867
11
114.465
21
-93.791
0
LINE
8
Black
10
114.465
20
-93.791
11
114.458
21
-93.7932
0
LINE
8
Black
10
114.458
20
-93.7932
11
114.453
21
-93.7965
0
LINE
8
Black
10
114.453
20
-93.7965
11
114.446
21
-93.7976
0
LINE
8
Black
10
114.446
20
-93.7976
11
114.44
21
-93.7999
0
LINE
8
Black
10
114.44
20
-93.7999
11
114.433
21
-93.7999
0
LINE
8
Black
10
114.433
20
-93.7999
11
114.427
21
-93.801
0
LINE
8
Black
10
114.427
20
-93.801
11
39.7002
21
-93.801
0
LINE
8
Black
10
39.7002
20
-93.801
11
39.6937
21
-93.7999
0
LINE
8
Black
10
39.6937
20
-93.7999
11
39.6872
21
-93.7999
0
LINE
8
Black
10
39.6872
20
-93.7999
11
39.681
21
-93.7976
0
LINE
8
Black
10
39.681
20
-93.7976
11
39.6745
21
-93.7965
0
LINE
8
Black
10
39.6745
20
-93.7965
11
39.6689
21
-93.7932
0
LINE
8
Black
10
39.6689
20
-93.7932
11
39.6627
21
-93.791
0
LINE
8
Black
10
39.6627
20
-93.791
11
39.6577
21
-93.7867
0
LINE
8
Black
10
39.6577
20
-93.7867
11
39.652
21
-93.7835
0
LINE
8
Black
10
39.652
20
-93.7835
11
39.6478
21
-93.7784
0
LINE
8
Black
10
39.6478
20
-93.7784
11
39.6427
21
-93.7742
0
LINE
8
Black
10
39.6427
20
-93.7742
11
39.6395
21
-93.7685
0
LINE
8
Black
10
39.6395
20
-93.7685
11
39.6352
21
-93.7635
0
LINE
8
Black
10
39.6352
20
-93.7635
11
39.633
21
-93.7573
0
LINE
8
Black
10
39.633
20
-93.7573
11
39.6297
21
-93.7517
0
LINE
8
Black
10
39.6297
20
-93.7517
11
39.6286
21
-93.7452
0
LINE
8
Black
10
39.6286
20
-93.7452
11
39.6263
21
-93.739
0
LINE
8
Black
10
39.6263
20
-93.739
11
39.6263
21
-93.7325
0
LINE
8
Black
10
39.6263
20
-93.7325
11
39.6252
21
-93.726
0
LINE
8
Black
10
39.6252
20
-93.726
11
39.6252
21
-28.4734
0
LINE
8
Black
10
39.6252
20
-28.4734
11
39.6297
21
-28.4477
0
LINE
8
Black
10
39.6297
20
-28.4477
11
39.6427
21
-28.4252
0
LINE
8
Black
10
39.6427
20
-28.4252
11
39.6627
21
-28.4084
0
LINE
8
Black
10
39.6627
20
-28.4084
11
39.6872
21
-28.3995
0
LINE
8
Black
10
39.6872
20
-28.3995
11
39.6952
21
-28.3995
0
LINE
8
Black
10
39.6952
20
-28.3995
11
39.7028
21
-28.3905
0
LINE
8
Black
10
39.7028
20
-28.3905
11
39.7253
21
-28.3775
0
LINE
8
Black
10
39.7253
20
-28.3775
11
39.751
21
-28.373
0
LINE
8
Black
10
39.751
20
-28.373
11
114.427
21
-28.373
0
LINE
8
Black
10
114.427
20
-28.373
11
114.433
21
-28.3741
0
LINE
8
Black
10
39.7752
20
-28.523
11
39.7752
21
-93.651
0
LINE
8
Black
10
39.7752
20
-93.651
11
114.352
21
-93.651
0
LINE
8
Black
10
114.352
20
-93.651
11
114.352
21
-28.523
0
LINE
8
Black
10
114.352
20
-28.523
11
39.7752
21
-28.523
  0
ENDSEC
  0
EOF
