  0
SECTION
  2
HEADER
  9
$ANGBASE
  50
0.0
  9
$ANGDIR
  70
  1
  9
$MEASUREMENT
  70
0
  0
ENDSEC
  0
SECTION
  2
TABLES
  0
TABLE
  2
LTYPE
  70
1
  0
LTYPE
  2
CONTINUOUS
  70
0
  3
Solid line
  72
65
  73
0
  40
0.0
  0
ENDTAB
  0
TABLE
  2
STYLE
  70
4
  0
STYLE
  2
KICAD
  70
0
  40
0
  41
1
  42
1
  50
0
  71
0
  3
isocp.shx
  0
STYLE
  2
KICADB
  70
0
  40
0
  41
1
  42
1
  50
0
  71
0
  3
isocp.shx
  0
STYLE
  2
KICADI
  70
0
  40
0
  41
1
  42
1
  50
15
  71
0
  3
isocp.shx
  0
STYLE
  2
KICADBI
  70
0
  40
0
  41
1
  42
1
  50
15
  71
0
  3
isocp.shx
  0
ENDTAB
  0
TABLE
  2
LAYER
  70
30
  0
LAYER
  2
BLACK
  70
0
  62
7
  6
CONTINUOUS
  0
LAYER
  2
GRAY1
  70
0
  62
251
  6
CONTINUOUS
  0
LAYER
  2
GRAY2
  70
0
  62
8
  6
CONTINUOUS
  0
LAYER
  2
GRAY3
  70
0
  62
9
  6
CONTINUOUS
  0
LAYER
  2
WHITE
  70
0
  62
7
  6
CONTINUOUS
  0
LAYER
  2
LYELLOW
  70
0
  62
51
  6
CONTINUOUS
  0
LAYER
  2
BLUE1
  70
0
  62
178
  6
CONTINUOUS
  0
LAYER
  2
GREEN1
  70
0
  62
98
  6
CONTINUOUS
  0
LAYER
  2
CYAN1
  70
0
  62
138
  6
CONTINUOUS
  0
LAYER
  2
RED1
  70
0
  62
18
  6
CONTINUOUS
  0
LAYER
  2
MAGENTA1
  70
0
  62
228
  6
CONTINUOUS
  0
LAYER
  2
BROWN1
  70
0
  62
58
  6
CONTINUOUS
  0
LAYER
  2
BLUE2
  70
0
  62
5
  6
CONTINUOUS
  0
LAYER
  2
GREEN2
  70
0
  62
3
  6
CONTINUOUS
  0
LAYER
  2
CYAN2
  70
0
  62
4
  6
CONTINUOUS
  0
LAYER
  2
RED2
  70
0
  62
1
  6
CONTINUOUS
  0
LAYER
  2
MAGENTA2
  70
0
  62
6
  6
CONTINUOUS
  0
LAYER
  2
BROWN2
  70
0
  62
54
  6
CONTINUOUS
  0
LAYER
  2
BLUE3
  70
0
  62
171
  6
CONTINUOUS
  0
LAYER
  2
GREEN3
  70
0
  62
91
  6
CONTINUOUS
  0
LAYER
  2
CYAN3
  70
0
  62
131
  6
CONTINUOUS
  0
LAYER
  2
RED3
  70
0
  62
11
  6
CONTINUOUS
  0
LAYER
  2
MAGENTA3
  70
0
  62
221
  6
CONTINUOUS
  0
LAYER
  2
YELLOW3
  70
0
  62
2
  6
CONTINUOUS
  0
LAYER
  2
BLUE4
  70
0
  62
5
  6
CONTINUOUS
  0
LAYER
  2
GREEN4
  70
0
  62
3
  6
CONTINUOUS
  0
LAYER
  2
CYAN4
  70
0
  62
4
  6
CONTINUOUS
  0
LAYER
  2
RED4
  70
0
  62
1
  6
CONTINUOUS
  0
LAYER
  2
MAGENTA4
  70
0
  62
6
  6
CONTINUOUS
  0
LAYER
  2
YELLOW4
  70
0
  62
2
  6
CONTINUOUS
  0
ENDTAB
  0
ENDSEC
  0
SECTION
  2
ENTITIES
0
LINE
8
Black
10
110.164
20
-21.7186
11
110.168
21
-21.7186
0
LINE
8
Black
10
110.168
20
-21.7186
11
110.173
21
-21.7201
0
LINE
8
Black
10
110.173
20
-21.7201
11
110.177
21
-21.7208
0
LINE
8
Black
10
110.177
20
-21.7208
11
110.181
21
-21.723
0
LINE
8
Black
10
110.181
20
-21.723
11
110.185
21
-21.7245
0
LINE
8
Black
10
110.185
20
-21.7245
11
110.188
21
-21.7273
0
LINE
8
Black
10
110.188
20
-21.7273
11
110.192
21
-21.7295
0
LINE
8
Black
10
110.192
20
-21.7295
11
110.195
21
-21.7328
0
LINE
8
Black
10
110.195
20
-21.7328
11
110.198
21
-21.7357
0
LINE
8
Black
10
110.198
20
-21.7357
11
110.2
21
-21.7394
0
LINE
8
Black
10
110.2
20
-21.7394
11
110.203
21
-21.7428
0
LINE
8
Black
10
110.203
20
-21.7428
11
110.205
21
-21.7469
0
LINE
8
Black
10
110.205
20
-21.7469
11
110.207
21
-21.7507
0
LINE
8
Black
10
110.207
20
-21.7507
11
110.208
21
-21.755
0
LINE
8
Black
10
110.208
20
-21.755
11
110.209
21
-21.7591
0
LINE
8
Black
10
110.209
20
-21.7591
11
110.209
21
-21.7635
0
LINE
8
Black
10
110.209
20
-21.7635
11
110.21
21
-21.7678
0
LINE
8
Black
10
110.21
20
-21.7678
11
110.21
21
-74.5998
0
LINE
8
Black
10
110.21
20
-74.5998
11
110.209
21
-74.6041
0
LINE
8
Black
10
110.209
20
-74.6041
11
110.209
21
-74.6085
0
LINE
8
Black
10
110.209
20
-74.6085
11
110.208
21
-74.6126
0
LINE
8
Black
10
110.208
20
-74.6126
11
110.207
21
-74.6169
0
LINE
8
Black
10
110.207
20
-74.6169
11
110.205
21
-74.6207
0
LINE
8
Black
10
110.205
20
-74.6207
11
110.203
21
-74.6248
0
LINE
8
Black
10
110.203
20
-74.6248
11
110.2
21
-74.6282
0
LINE
8
Black
10
110.2
20
-74.6282
11
110.198
21
-74.6319
0
LINE
8
Black
10
110.198
20
-74.6319
11
110.195
21
-74.6348
0
LINE
8
Black
10
110.195
20
-74.6348
11
110.192
21
-74.6381
0
LINE
8
Black
10
110.192
20
-74.6381
11
110.188
21
-74.6403
0
LINE
8
Black
10
110.188
20
-74.6403
11
110.185
21
-74.6431
0
LINE
8
Black
10
110.185
20
-74.6431
11
110.181
21
-74.6446
0
LINE
8
Black
10
110.181
20
-74.6446
11
110.177
21
-74.6468
0
LINE
8
Black
10
110.177
20
-74.6468
11
110.173
21
-74.6475
0
LINE
8
Black
10
110.173
20
-74.6475
11
110.168
21
-74.649
0
LINE
8
Black
10
110.168
20
-74.649
11
110.164
21
-74.649
0
LINE
8
Black
10
110.164
20
-74.649
11
110.16
21
-74.6498
0
LINE
8
Black
10
110.16
20
-74.6498
11
51.6374
21
-74.6498
0
LINE
8
Black
10
51.6374
20
-74.6498
11
51.6374
21
-116.903
0
LINE
8
Black
10
51.6374
20
-116.903
11
51.637
21
-116.906
0
LINE
8
Black
10
51.637
20
-116.906
11
51.6372
21
-116.908
0
LINE
8
Black
10
51.6372
20
-116.908
11
51.6355
21
-116.914
0
LINE
8
Black
10
51.6355
20
-116.914
11
51.6344
21
-116.921
0
LINE
8
Black
10
51.6344
20
-116.921
11
51.6333
21
-116.923
0
LINE
8
Black
10
51.6333
20
-116.923
11
51.6327
21
-116.925
0
LINE
8
Black
10
51.6327
20
-116.925
11
51.629
21
-116.93
0
LINE
8
Black
10
51.629
20
-116.93
11
51.6257
21
-116.936
0
LINE
8
Black
10
51.6257
20
-116.936
11
51.624
21
-116.937
0
LINE
8
Black
10
51.624
20
-116.937
11
51.6228
21
-116.939
0
LINE
8
Black
10
51.6228
20
-116.939
11
50.8227
21
-117.739
0
LINE
8
Black
10
50.8227
20
-117.739
11
50.8209
21
-117.74
0
LINE
8
Black
10
50.8209
20
-117.74
11
50.8194
21
-117.742
0
LINE
8
Black
10
50.8194
20
-117.742
11
50.8138
21
-117.745
0
LINE
8
Black
10
50.8138
20
-117.745
11
50.8084
21
-117.749
0
LINE
8
Black
10
50.8084
20
-117.749
11
50.8063
21
-117.749
0
LINE
8
Black
10
50.8063
20
-117.749
11
50.8044
21
-117.751
0
LINE
8
Black
10
50.8044
20
-117.751
11
50.798
21
-117.752
0
LINE
8
Black
10
50.798
20
-117.752
11
50.7917
21
-117.753
0
LINE
8
Black
10
50.7917
20
-117.753
11
50.7895
21
-117.753
0
LINE
8
Black
10
50.7895
20
-117.753
11
50.7873
21
-117.754
0
LINE
8
Black
10
50.7873
20
-117.754
11
41.2369
21
-117.754
0
LINE
8
Black
10
41.2369
20
-117.754
11
41.2347
21
-117.753
0
LINE
8
Black
10
41.2347
20
-117.753
11
41.2325
21
-117.753
0
LINE
8
Black
10
41.2325
20
-117.753
11
41.2262
21
-117.752
0
LINE
8
Black
10
41.2262
20
-117.752
11
41.2198
21
-117.751
0
LINE
8
Black
10
41.2198
20
-117.751
11
41.2179
21
-117.749
0
LINE
8
Black
10
41.2179
20
-117.749
11
41.2158
21
-117.749
0
LINE
8
Black
10
41.2158
20
-117.749
11
41.2104
21
-117.745
0
LINE
8
Black
10
41.2104
20
-117.745
11
41.2048
21
-117.742
0
LINE
8
Black
10
41.2048
20
-117.742
11
41.2033
21
-117.74
0
LINE
8
Black
10
41.2033
20
-117.74
11
41.2015
21
-117.739
0
LINE
8
Black
10
41.2015
20
-117.739
11
40.4014
21
-116.939
0
LINE
8
Black
10
40.4014
20
-116.939
11
40.4002
21
-116.937
0
LINE
8
Black
10
40.4002
20
-116.937
11
40.3985
21
-116.936
0
LINE
8
Black
10
40.3985
20
-116.936
11
40.3952
21
-116.93
0
LINE
8
Black
10
40.3952
20
-116.93
11
40.3915
21
-116.925
0
LINE
8
Black
10
40.3915
20
-116.925
11
40.3909
21
-116.923
0
LINE
8
Black
10
40.3909
20
-116.923
11
40.3898
21
-116.921
0
LINE
8
Black
10
40.3898
20
-116.921
11
40.3887
21
-116.914
0
LINE
8
Black
10
40.3887
20
-116.914
11
40.387
21
-116.908
0
LINE
8
Black
10
40.387
20
-116.908
11
40.3872
21
-116.906
0
LINE
8
Black
10
40.3872
20
-116.906
11
40.3868
21
-116.903
0
LINE
8
Black
10
40.3868
20
-116.903
11
40.3868
21
-74.5998
0
LINE
8
Black
10
40.3868
20
-74.5998
11
40.3868
21
-21.7678
0
LINE
8
Black
10
40.3868
20
-21.7678
11
40.3876
21
-21.7635
0
LINE
8
Black
10
40.3876
20
-21.7635
11
40.3876
21
-21.7591
0
LINE
8
Black
10
40.3876
20
-21.7591
11
40.3891
21
-21.755
0
LINE
8
Black
10
40.3891
20
-21.755
11
40.3898
21
-21.7507
0
LINE
8
Black
10
40.3898
20
-21.7507
11
40.392
21
-21.7469
0
LINE
8
Black
10
40.392
20
-21.7469
11
40.3935
21
-21.7428
0
LINE
8
Black
10
40.3935
20
-21.7428
11
40.3963
21
-21.7394
0
LINE
8
Black
10
40.3963
20
-21.7394
11
40.3985
21
-21.7357
0
LINE
8
Black
10
40.3985
20
-21.7357
11
40.4018
21
-21.7328
0
LINE
8
Black
10
40.4018
20
-21.7328
11
40.4047
21
-21.7295
0
LINE
8
Black
10
40.4047
20
-21.7295
11
40.4084
21
-21.7273
0
LINE
8
Black
10
40.4084
20
-21.7273
11
40.4118
21
-21.7245
0
LINE
8
Black
10
40.4118
20
-21.7245
11
40.4159
21
-21.723
0
LINE
8
Black
10
40.4159
20
-21.723
11
40.4197
21
-21.7208
0
LINE
8
Black
10
40.4197
20
-21.7208
11
40.424
21
-21.7201
0
LINE
8
Black
10
40.424
20
-21.7201
11
40.4281
21
-21.7186
0
LINE
8
Black
10
40.4281
20
-21.7186
11
40.4325
21
-21.7186
0
LINE
8
Black
10
40.4325
20
-21.7186
11
40.4368
21
-21.7178
0
LINE
8
Black
10
40.4368
20
-21.7178
11
110.16
21
-21.7178
0
LINE
8
Black
10
110.16
20
-21.7178
11
110.164
21
-21.7186
0
LINE
8
Black
10
40.4868
20
-21.8178
11
40.4868
21
-74.5998
0
LINE
8
Black
10
40.4868
20
-74.5998
11
40.4868
21
-116.883
0
LINE
8
Black
10
40.4868
20
-116.883
11
41.2576
21
-117.654
0
LINE
8
Black
10
41.2576
20
-117.654
11
50.7666
21
-117.654
0
LINE
8
Black
10
50.7666
20
-117.654
11
51.5374
21
-116.883
0
LINE
8
Black
10
51.5374
20
-116.883
11
51.5374
21
-74.5998
0
LINE
8
Black
10
51.5374
20
-74.5998
11
51.5382
21
-74.5955
0
LINE
8
Black
10
51.5382
20
-74.5955
11
51.5382
21
-74.5911
0
LINE
8
Black
10
51.5382
20
-74.5911
11
51.5397
21
-74.587
0
LINE
8
Black
10
51.5397
20
-74.587
11
51.5404
21
-74.5827
0
LINE
8
Black
10
51.5404
20
-74.5827
11
51.5426
21
-74.5789
0
LINE
8
Black
10
51.5426
20
-74.5789
11
51.5441
21
-74.5748
0
LINE
8
Black
10
51.5441
20
-74.5748
11
51.5469
21
-74.5714
0
LINE
8
Black
10
51.5469
20
-74.5714
11
51.5491
21
-74.5677
0
LINE
8
Black
10
51.5491
20
-74.5677
11
51.5524
21
-74.5648
0
LINE
8
Black
10
51.5524
20
-74.5648
11
51.5553
21
-74.5615
0
LINE
8
Black
10
51.5553
20
-74.5615
11
51.559
21
-74.5593
0
LINE
8
Black
10
51.559
20
-74.5593
11
51.5624
21
-74.5565
0
LINE
8
Black
10
51.5624
20
-74.5565
11
51.5665
21
-74.555
0
LINE
8
Black
10
51.5665
20
-74.555
11
51.5703
21
-74.5528
0
LINE
8
Black
10
51.5703
20
-74.5528
11
51.5746
21
-74.5521
0
LINE
8
Black
10
51.5746
20
-74.5521
11
51.5787
21
-74.5506
0
LINE
8
Black
10
51.5787
20
-74.5506
11
51.5831
21
-74.5506
0
LINE
8
Black
10
51.5831
20
-74.5506
11
51.5874
21
-74.5498
0
LINE
8
Black
10
51.5874
20
-74.5498
11
110.11
21
-74.5498
0
LINE
8
Black
10
110.11
20
-74.5498
11
110.11
21
-21.8178
0
LINE
8
Black
10
110.11
20
-21.8178
11
40.4868
21
-21.8178
0
LINE
8
Black
10
99.2189
20
-33.0223
11
99.2254
21
-33.0223
0
LINE
8
Black
10
99.2254
20
-33.0223
11
99.2316
21
-33.0246
0
LINE
8
Black
10
99.2316
20
-33.0246
11
99.2381
21
-33.0257
0
LINE
8
Black
10
99.2381
20
-33.0257
11
99.2437
21
-33.029
0
LINE
8
Black
10
99.2437
20
-33.029
11
99.2499
21
-33.0312
0
LINE
8
Black
10
99.2499
20
-33.0312
11
99.2549
21
-33.0355
0
LINE
8
Black
10
99.2549
20
-33.0355
11
99.2606
21
-33.0387
0
LINE
8
Black
10
99.2606
20
-33.0387
11
99.2648
21
-33.0438
0
LINE
8
Black
10
99.2648
20
-33.0438
11
99.2699
21
-33.048
0
LINE
8
Black
10
99.2699
20
-33.048
11
99.2731
21
-33.0537
0
LINE
8
Black
10
99.2731
20
-33.0537
11
99.2774
21
-33.0587
0
LINE
8
Black
10
99.2774
20
-33.0587
11
99.2796
21
-33.0649
0
LINE
8
Black
10
99.2796
20
-33.0649
11
99.2829
21
-33.0705
0
LINE
8
Black
10
99.2829
20
-33.0705
11
99.284
21
-33.077
0
LINE
8
Black
10
99.284
20
-33.077
11
99.2863
21
-33.0832
0
LINE
8
Black
10
99.2863
20
-33.0832
11
99.2863
21
-33.0897
0
LINE
8
Black
10
99.2863
20
-33.0897
11
99.2874
21
-33.0962
0
LINE
8
Black
10
99.2874
20
-33.0962
11
99.2874
21
-73.7362
0
LINE
8
Black
10
99.2874
20
-73.7362
11
99.2863
21
-73.7427
0
LINE
8
Black
10
99.2863
20
-73.7427
11
99.2863
21
-73.7492
0
LINE
8
Black
10
99.2863
20
-73.7492
11
99.284
21
-73.7554
0
LINE
8
Black
10
99.284
20
-73.7554
11
99.2829
21
-73.7619
0
LINE
8
Black
10
99.2829
20
-73.7619
11
99.2796
21
-73.7675
0
LINE
8
Black
10
99.2796
20
-73.7675
11
99.2774
21
-73.7737
0
LINE
8
Black
10
99.2774
20
-73.7737
11
99.2731
21
-73.7787
0
LINE
8
Black
10
99.2731
20
-73.7787
11
99.2699
21
-73.7844
0
LINE
8
Black
10
99.2699
20
-73.7844
11
99.2648
21
-73.7886
0
LINE
8
Black
10
99.2648
20
-73.7886
11
99.2606
21
-73.7937
0
LINE
8
Black
10
99.2606
20
-73.7937
11
99.2549
21
-73.7969
0
LINE
8
Black
10
99.2549
20
-73.7969
11
99.2499
21
-73.8012
0
LINE
8
Black
10
99.2499
20
-73.8012
11
99.2437
21
-73.8034
0
LINE
8
Black
10
99.2437
20
-73.8034
11
99.2381
21
-73.8067
0
LINE
8
Black
10
99.2381
20
-73.8067
11
99.2316
21
-73.8078
0
LINE
8
Black
10
99.2316
20
-73.8078
11
99.2254
21
-73.8101
0
LINE
8
Black
10
99.2254
20
-73.8101
11
99.2189
21
-73.8101
0
LINE
8
Black
10
99.2189
20
-73.8101
11
99.2124
21
-73.8112
0
LINE
8
Black
10
99.2124
20
-73.8112
11
58.5724
21
-73.8112
0
LINE
8
Black
10
58.5724
20
-73.8112
11
58.5659
21
-73.8101
0
LINE
8
Black
10
58.5659
20
-73.8101
11
58.5594
21
-73.8101
0
LINE
8
Black
10
58.5594
20
-73.8101
11
58.5532
21
-73.8078
0
LINE
8
Black
10
58.5532
20
-73.8078
11
58.5467
21
-73.8067
0
LINE
8
Black
10
58.5467
20
-73.8067
11
58.5411
21
-73.8034
0
LINE
8
Black
10
58.5411
20
-73.8034
11
58.5349
21
-73.8012
0
LINE
8
Black
10
58.5349
20
-73.8012
11
58.5299
21
-73.7969
0
LINE
8
Black
10
58.5299
20
-73.7969
11
58.5242
21
-73.7937
0
LINE
8
Black
10
58.5242
20
-73.7937
11
58.52
21
-73.7886
0
LINE
8
Black
10
58.52
20
-73.7886
11
58.5149
21
-73.7844
0
LINE
8
Black
10
58.5149
20
-73.7844
11
58.5117
21
-73.7787
0
LINE
8
Black
10
58.5117
20
-73.7787
11
58.5074
21
-73.7737
0
LINE
8
Black
10
58.5074
20
-73.7737
11
58.5052
21
-73.7675
0
LINE
8
Black
10
58.5052
20
-73.7675
11
58.5019
21
-73.7619
0
LINE
8
Black
10
58.5019
20
-73.7619
11
58.5008
21
-73.7554
0
LINE
8
Black
10
58.5008
20
-73.7554
11
58.4985
21
-73.7492
0
LINE
8
Black
10
58.4985
20
-73.7492
11
58.4985
21
-73.7427
0
LINE
8
Black
10
58.4985
20
-73.7427
11
58.4974
21
-73.7362
0
LINE
8
Black
10
58.4974
20
-73.7362
11
58.4974
21
-33.0962
0
LINE
8
Black
10
58.4974
20
-33.0962
11
58.4985
21
-33.0897
0
LINE
8
Black
10
58.4985
20
-33.0897
11
58.4985
21
-33.0832
0
LINE
8
Black
10
58.4985
20
-33.0832
11
58.5008
21
-33.077
0
LINE
8
Black
10
58.5008
20
-33.077
11
58.5019
21
-33.0705
0
LINE
8
Black
10
58.5019
20
-33.0705
11
58.5052
21
-33.0649
0
LINE
8
Black
10
58.5052
20
-33.0649
11
58.5074
21
-33.0587
0
LINE
8
Black
10
58.5074
20
-33.0587
11
58.5117
21
-33.0537
0
LINE
8
Black
10
58.5117
20
-33.0537
11
58.5149
21
-33.048
0
LINE
8
Black
10
58.5149
20
-33.048
11
58.52
21
-33.0438
0
LINE
8
Black
10
58.52
20
-33.0438
11
58.5242
21
-33.0387
0
LINE
8
Black
10
58.5242
20
-33.0387
11
58.5299
21
-33.0355
0
LINE
8
Black
10
58.5299
20
-33.0355
11
58.5349
21
-33.0312
0
LINE
8
Black
10
58.5349
20
-33.0312
11
58.5411
21
-33.029
0
LINE
8
Black
10
58.5411
20
-33.029
11
58.5467
21
-33.0257
0
LINE
8
Black
10
58.5467
20
-33.0257
11
58.5532
21
-33.0246
0
LINE
8
Black
10
58.5532
20
-33.0246
11
58.5594
21
-33.0223
0
LINE
8
Black
10
58.5594
20
-33.0223
11
58.5659
21
-33.0223
0
LINE
8
Black
10
58.5659
20
-33.0223
11
58.5724
21
-33.0212
0
LINE
8
Black
10
58.5724
20
-33.0212
11
99.2124
21
-33.0212
0
LINE
8
Black
10
99.2124
20
-33.0212
11
99.2189
21
-33.0223
0
LINE
8
Black
10
58.6474
20
-33.1712
11
58.6474
21
-73.6612
0
LINE
8
Black
10
58.6474
20
-73.6612
11
99.1374
21
-73.6612
0
LINE
8
Black
10
99.1374
20
-73.6612
11
99.1374
21
-33.1712
0
LINE
8
Black
10
99.1374
20
-33.1712
11
58.6474
21
-33.1712
  0
ENDSEC
  0
EOF
